<svg class="main-svg" xmlns="http://www.w3.org/2000/svg" xmlns:xlink="http://www.w3.org/1999/xlink" width="700" height="500" style="" viewBox="0 0 700 500"><rect x="0" y="0" width="700" height="500" style="fill: rgb(255, 255, 255); fill-opacity: 1;"/><defs id="defs-c87a2c"><g class="clips"><clipPath id="clipc87a2cxyplot" class="plotclip"><rect width="463" height="320"/></clipPath><clipPath class="axesclip" id="clipc87a2cx"><rect x="80" y="0" width="463" height="500"/></clipPath><clipPath class="axesclip" id="clipc87a2cy"><rect x="0" y="100" width="700" height="320"/></clipPath><clipPath class="axesclip" id="clipc87a2cxy"><rect x="80" y="100" width="463" height="320"/></clipPath></g><g class="gradients"/><g class="patterns"/></defs><g class="bglayer"><rect class="bg" x="80" y="100" width="463" height="320" style="fill: rgb(229, 236, 246); fill-opacity: 1; stroke-width: 0;"/></g><g class="layer-below"><g class="imagelayer"/><g class="shapelayer"/></g><g class="cartesianlayer"><g class="subplot xy"><g class="layer-subplot"><g class="shapelayer"/><g class="imagelayer"/></g><g class="minor-gridlayer"><g class="x"/><g class="y"/></g><g class="gridlayer"><g class="x"><path class="xgrid crisp" transform="translate(173.54000000000002,0)" d="M0,100v320" style="stroke: rgb(255, 255, 255); stroke-opacity: 1; stroke-width: 1px;"/><path class="xgrid crisp" transform="translate(267.07,0)" d="M0,100v320" style="stroke: rgb(255, 255, 255); stroke-opacity: 1; stroke-width: 1px;"/><path class="xgrid crisp" transform="translate(360.61,0)" d="M0,100v320" style="stroke: rgb(255, 255, 255); stroke-opacity: 1; stroke-width: 1px;"/><path class="xgrid crisp" transform="translate(454.14,0)" d="M0,100v320" style="stroke: rgb(255, 255, 255); stroke-opacity: 1; stroke-width: 1px;"/></g><g class="y"><path class="ygrid crisp" transform="translate(0,370.93)" d="M80,0h463" style="stroke: rgb(255, 255, 255); stroke-opacity: 1; stroke-width: 1px;"/><path class="ygrid crisp" transform="translate(0,317.69)" d="M80,0h463" style="stroke: rgb(255, 255, 255); stroke-opacity: 1; stroke-width: 1px;"/><path class="ygrid crisp" transform="translate(0,264.45)" d="M80,0h463" style="stroke: rgb(255, 255, 255); stroke-opacity: 1; stroke-width: 1px;"/><path class="ygrid crisp" transform="translate(0,211.20999999999998)" d="M80,0h463" style="stroke: rgb(255, 255, 255); stroke-opacity: 1; stroke-width: 1px;"/><path class="ygrid crisp" transform="translate(0,157.97)" d="M80,0h463" style="stroke: rgb(255, 255, 255); stroke-opacity: 1; stroke-width: 1px;"/><path class="ygrid crisp" transform="translate(0,104.73)" d="M80,0h463" style="stroke: rgb(255, 255, 255); stroke-opacity: 1; stroke-width: 1px;"/></g></g><g class="zerolinelayer"><path class="xzl zl crisp" transform="translate(80,0)" d="M0,100v320" style="stroke: rgb(255, 255, 255); stroke-opacity: 1; stroke-width: 2px;"/></g><path class="xlines-below"/><path class="ylines-below"/><g class="overlines-below"/><g class="xaxislayer-below"/><g class="yaxislayer-below"/><g class="overaxes-below"/><g class="plot" transform="translate(80,100)" clip-path="url(#clipc87a2cxyplot)"><g class="scatterlayer mlayer"><g class="trace scatter trace9f6739" style="stroke-miterlimit: 2; opacity: 1;"><g class="fills"/><g class="errorbars"/><g class="lines"><path class="js-line" d="M0,154.66L4.68,256.25L9.35,181.95L14.03,265.89L18.71,301.48L23.38,87.04L28.06,229.7L37.41,81.99L42.09,94.9L46.77,56.93L51.44,53.82L56.12,233.41L60.8,69.83L65.47,95.34L70.15,65.83L74.83,230.44L79.51,72.21L84.18,94.01L88.86,49.52L93.54,69.83L98.21,75.77L102.89,58.27L107.57,191.29L112.24,48.33L116.92,223.32L121.6,50.55L126.27,63.75L130.95,138.35L135.63,86.15L140.3,213.24L144.98,86L149.66,97.71L154.33,106.76L159.01,42.69L163.69,134.2L168.36,72.21L173.04,52.33L177.72,61.97L182.39,128.26L187.07,122.63L191.75,49.66L196.42,48.18L201.1,164.89L205.78,55.15L210.45,61.53L215.13,62.71L219.81,148.73L224.48,52.33L229.16,57.67L233.84,51.74L238.52,59.75L243.19,66.42L247.87,49.07L252.55,47.74L257.22,38.84L261.9,38.39L266.58,49.07L271.25,49.07L275.93,38.25L280.61,55.6L285.28,51.44L289.96,49.96L294.64,55.15L299.31,56.93L303.99,64.35L308.67,55.3L313.34,66.72L318.02,70.28L322.7,52.48L327.37,55.74L332.05,52.63L336.73,42.84L341.4,57.97L346.08,44.18L350.76,41.21L355.43,41.36L360.11,42.99L364.79,42.4L369.46,43.29L374.14,53.82L378.82,44.33L383.49,51.3L388.17,52.63L392.85,47.88L397.53,46.4L402.2,51.74L406.88,46.7L411.56,44.33L416.23,52.19L420.91,38.99L425.59,46.25L430.26,47.44L434.94,53.22L439.62,49.66L444.29,50.26L448.97,50.26L453.65,47.44L458.32,46.11L463,54.56" style="vector-effect: non-scaling-stroke; fill: none; stroke: rgb(248, 38, 214); stroke-opacity: 1; stroke-width: 2px; opacity: 1;"/></g><g class="points"/><g class="text"/></g><g class="trace scatter trace109ea7" style="stroke-miterlimit: 2; opacity: 1;"><g class="fills"/><g class="errorbars"/><g class="lines"><path class="js-line" d="M0,116.55L4.68,155.85L9.35,82.88L14.03,148.28L18.71,71.02L23.38,79.47L28.06,26.38L32.74,77.1L37.41,55.15L46.77,50.11L51.44,37.21L56.12,36.02L60.8,80.66L65.47,53.52L70.15,44.92L74.83,33.65L79.51,33.2L84.18,56.93L88.86,43.29L93.54,118.33L98.21,36.47L102.89,36.76L107.57,31.57L112.24,29.79L116.92,37.36L121.6,33.94L126.27,34.09L130.95,22.97L135.63,39.28L140.3,24.01L144.98,29.05L149.66,35.13L154.33,63.01L159.01,37.95L163.69,34.69L168.36,23.56L173.04,42.99L177.72,25.05L182.39,28.01L187.07,45.36L191.75,34.54L196.42,23.27L201.1,43.88L205.78,17.04L210.45,36.17L215.13,41.36L219.81,33.2L224.48,33.94L229.16,30.39L233.84,21.64L238.52,23.56L247.87,24.3L252.55,22.82L257.22,22.67L261.9,18.37L266.58,26.83L271.25,24.6L275.93,26.83L280.61,22.97L285.28,25.05L289.96,23.71L294.64,16L299.31,27.42L303.99,22.82L308.67,28.01L313.34,30.98L318.02,30.09L322.7,25.05L327.37,25.05L332.05,25.64L336.73,24.16L341.4,29.5L346.08,24.01L350.76,26.23L355.43,27.57L364.79,22.08L369.46,24.01L374.14,24.16L378.82,28.31L383.49,20.89L388.17,26.83L392.85,25.34L397.53,28.31L402.2,24.6L406.88,25.34L411.56,23.71L416.23,25.34L420.91,22.38L425.59,25.79L430.26,27.42L434.94,23.86L439.62,25.05L444.29,24.16L448.97,27.72L453.65,25.79L458.32,26.97L463,26.97" style="vector-effect: non-scaling-stroke; fill: none; stroke: rgb(219, 219, 219); stroke-opacity: 1; stroke-width: 2px; opacity: 1;"/></g><g class="points"/><g class="text"/></g><g class="trace scatter tracebd09ab" style="stroke-miterlimit: 2; opacity: 1;"><g class="fills"/><g class="errorbars"/><g class="lines"><path class="js-line" d="M0,304L4.68,229.4L9.35,101.72L14.03,87.04L18.71,93.86L23.38,78.58L28.06,103.35L32.74,93.12L37.41,93.71L42.09,54.71L46.77,69.54L51.44,55.3L56.12,73.84L60.8,50.11L65.47,43.58L70.15,57.38L74.83,39.13L79.51,63.31L84.18,69.98L88.86,75.17L93.54,76.51L98.21,39.13L102.89,75.47L107.57,30.39L112.24,80.96L116.92,113.58L121.6,51.74L126.27,65.98L130.95,30.68L135.63,42.69L140.3,46.4L144.98,32.02L149.66,37.36L154.33,35.72L159.01,65.38L163.69,28.9L168.36,41.95L177.72,25.19L182.39,32.76L191.75,42.1L196.42,24.45L201.1,39.73L205.78,28.46L210.45,35.87L215.13,41.36L219.81,40.32L224.48,52.63L229.16,53.22L233.84,34.54L238.52,33.65L243.19,29.5L247.87,29.35L252.55,31.27L261.9,24.3L266.58,24.3L271.25,27.12L275.93,24.75L280.61,25.19L285.28,27.27L294.64,25.34L299.31,23.27L303.99,25.19L308.67,28.16L313.34,22.97L318.02,19.71L322.7,20.3L327.37,26.38L332.05,20.75L336.73,26.23L341.4,19.56L346.08,27.57L355.43,22.97L360.11,26.38L364.79,24.16L369.46,24.9L374.14,24.9L378.82,20L383.49,24.45L388.17,23.56L392.85,25.79L397.53,29.35L402.2,24.45L406.88,28.16L411.56,21.64L416.23,23.86L420.91,25.64L425.59,25.94L430.26,22.38L434.94,22.97L439.62,23.12L444.29,21.64L448.97,24.6L453.65,20L463,25.19" style="vector-effect: non-scaling-stroke; fill: none; stroke: rgb(70, 231, 248); stroke-opacity: 1; stroke-width: 2px; opacity: 1;"/></g><g class="points"/><g class="text"/></g></g></g><g class="overplot"/><path class="xlines-above crisp" d="M0,0" style="fill: none;"/><path class="ylines-above crisp" d="M0,0" style="fill: none;"/><g class="overlines-above"/><g class="xaxislayer-above"><g class="xtick"><text text-anchor="middle" x="0" y="433" transform="translate(80,0)" style="font-family: 'Open Sans', verdana, arial, sans-serif; font-size: 12px; fill: rgb(42, 63, 95); fill-opacity: 1; white-space: pre; opacity: 1;">0</text></g><g class="xtick"><text text-anchor="middle" x="0" y="433" style="font-family: 'Open Sans', verdana, arial, sans-serif; font-size: 12px; fill: rgb(42, 63, 95); fill-opacity: 1; white-space: pre; opacity: 1;" transform="translate(173.54000000000002,0)">20</text></g><g class="xtick"><text text-anchor="middle" x="0" y="433" style="font-family: 'Open Sans', verdana, arial, sans-serif; font-size: 12px; fill: rgb(42, 63, 95); fill-opacity: 1; white-space: pre; opacity: 1;" transform="translate(267.07,0)">40</text></g><g class="xtick"><text text-anchor="middle" x="0" y="433" style="font-family: 'Open Sans', verdana, arial, sans-serif; font-size: 12px; fill: rgb(42, 63, 95); fill-opacity: 1; white-space: pre; opacity: 1;" transform="translate(360.61,0)">60</text></g><g class="xtick"><text text-anchor="middle" x="0" y="433" style="font-family: 'Open Sans', verdana, arial, sans-serif; font-size: 12px; fill: rgb(42, 63, 95); fill-opacity: 1; white-space: pre; opacity: 1;" transform="translate(454.14,0)">80</text></g></g><g class="yaxislayer-above"><g class="ytick"><text text-anchor="end" x="79" y="4.199999999999999" transform="translate(0,370.93)" style="font-family: 'Open Sans', verdana, arial, sans-serif; font-size: 12px; fill: rgb(42, 63, 95); fill-opacity: 1; white-space: pre; opacity: 1;">0.7</text></g><g class="ytick"><text text-anchor="end" x="79" y="4.199999999999999" style="font-family: 'Open Sans', verdana, arial, sans-serif; font-size: 12px; fill: rgb(42, 63, 95); fill-opacity: 1; white-space: pre; opacity: 1;" transform="translate(0,317.69)">0.75</text></g><g class="ytick"><text text-anchor="end" x="79" y="4.199999999999999" style="font-family: 'Open Sans', verdana, arial, sans-serif; font-size: 12px; fill: rgb(42, 63, 95); fill-opacity: 1; white-space: pre; opacity: 1;" transform="translate(0,264.45)">0.8</text></g><g class="ytick"><text text-anchor="end" x="79" y="4.199999999999999" style="font-family: 'Open Sans', verdana, arial, sans-serif; font-size: 12px; fill: rgb(42, 63, 95); fill-opacity: 1; white-space: pre; opacity: 1;" transform="translate(0,211.20999999999998)">0.85</text></g><g class="ytick"><text text-anchor="end" x="79" y="4.199999999999999" style="font-family: 'Open Sans', verdana, arial, sans-serif; font-size: 12px; fill: rgb(42, 63, 95); fill-opacity: 1; white-space: pre; opacity: 1;" transform="translate(0,157.97)">0.9</text></g><g class="ytick"><text text-anchor="end" x="79" y="4.199999999999999" style="font-family: 'Open Sans', verdana, arial, sans-serif; font-size: 12px; fill: rgb(42, 63, 95); fill-opacity: 1; white-space: pre; opacity: 1;" transform="translate(0,104.73)">0.95</text></g></g><g class="overaxes-above"/></g></g><g class="polarlayer"/><g class="smithlayer"/><g class="ternarylayer"/><g class="geolayer"/><g class="funnelarealayer"/><g class="pielayer"/><g class="iciclelayer"/><g class="treemaplayer"/><g class="sunburstlayer"/><g class="glimages"/><defs id="topdefs-c87a2c"><g class="clips"/><clipPath id="legendc87a2c"><rect width="136" height="86" x="0" y="0"/></clipPath></defs><g class="layer-above"><g class="imagelayer"/><g class="shapelayer"/></g><g class="infolayer"><g class="legend" pointer-events="all" transform="translate(552.26,100)"><rect class="bg" shape-rendering="crispEdges" style="stroke: rgb(68, 68, 68); stroke-opacity: 1; fill: rgb(255, 255, 255); fill-opacity: 1; stroke-width: 0px;" width="136" height="86" x="0" y="0"/><g class="scrollbox" transform="" clip-path="url(#legendc87a2c)"><text class="legendtitletext" text-anchor="start" x="2" y="18.2" style="font-family: 'Open Sans', verdana, arial, sans-serif; font-size: 14px; fill: rgb(42, 63, 95); fill-opacity: 1; white-space: pre;">variable</text><g class="groups" transform=""><g class="traces" transform="translate(0,32.7)" style="opacity: 1;"><text class="legendtext" text-anchor="start" x="40" y="4.680000000000001" style="font-family: 'Open Sans', verdana, arial, sans-serif; font-size: 12px; fill: rgb(42, 63, 95); fill-opacity: 1; white-space: pre;">None</text><g class="layers" style="opacity: 1;"><g class="legendfill"/><g class="legendlines"><path class="js-line" d="M5,0h30" style="fill: none; stroke: rgb(248, 38, 214); stroke-opacity: 1; stroke-width: 2px;"/></g><g class="legendsymbols"><g class="legendpoints"/></g></g><rect class="legendtoggle" x="0" y="-9.5" width="130.125" height="19" style="fill: rgb(0, 0, 0); fill-opacity: 0;"/></g></g><g class="groups" transform=""><g class="traces" transform="translate(0,51.7)" style="opacity: 1;"><text class="legendtext" text-anchor="start" x="40" y="4.680000000000001" style="font-family: 'Open Sans', verdana, arial, sans-serif; font-size: 12px; fill: rgb(42, 63, 95); fill-opacity: 1; white-space: pre;">Trivialaugment</text><g class="layers" style="opacity: 1;"><g class="legendfill"/><g class="legendlines"><path class="js-line" d="M5,0h30" style="fill: none; stroke: rgb(219, 219, 219); stroke-opacity: 1; stroke-width: 2px;"/></g><g class="legendsymbols"><g class="legendpoints"/></g></g><rect class="legendtoggle" x="0" y="-9.5" width="130.125" height="19" style="fill: rgb(0, 0, 0); fill-opacity: 0;"/></g></g><g class="groups" transform=""><g class="traces" transform="translate(0,70.7)" style="opacity: 1;"><text class="legendtext" text-anchor="start" x="40" y="4.680000000000001" style="font-family: 'Open Sans', verdana, arial, sans-serif; font-size: 12px; fill: rgb(42, 63, 95); fill-opacity: 1; white-space: pre;">Randaugment</text><g class="layers" style="opacity: 1;"><g class="legendfill"/><g class="legendlines"><path class="js-line" d="M5,0h30" style="fill: none; stroke: rgb(70, 231, 248); stroke-opacity: 1; stroke-width: 2px;"/></g><g class="legendsymbols"><g class="legendpoints"/></g></g><rect class="legendtoggle" x="0" y="-9.5" width="130.125" height="19" style="fill: rgb(0, 0, 0); fill-opacity: 0;"/></g></g></g><rect class="scrollbar" rx="20" ry="3" width="0" height="0" style="fill: rgb(128, 139, 164); fill-opacity: 1;" x="0" y="0"/></g><g class="g-gtitle"><text class="gtitle" x="35" y="50" text-anchor="start" dy="0em" style="font-family: 'Open Sans', verdana, arial, sans-serif; font-size: 17px; fill: rgb(42, 63, 95); opacity: 1; font-weight: normal; white-space: pre;">Accuracy of Models</text></g><g class="g-xtitle"><text class="xtitle" x="311.5" y="460.3" text-anchor="middle" style="font-family: 'Open Sans', verdana, arial, sans-serif; font-size: 14px; fill: rgb(42, 63, 95); opacity: 1; font-weight: normal; white-space: pre;">Step</text></g><g class="g-ytitle"><text class="ytitle" transform="rotate(-90,26.934375000000003,260)" x="26.934375000000003" y="260" text-anchor="middle" style="font-family: 'Open Sans', verdana, arial, sans-serif; font-size: 14px; fill: rgb(42, 63, 95); opacity: 1; font-weight: normal; white-space: pre;">value</text></g></g></svg>